<svg width="25" height="24" viewBox="0 0 25 24" fill="none" xmlns="http://www.w3.org/2000/svg">
  <path d="M7.00971 17.129C5.16471 15.819 3.70471 14.115 2.87971 13.039C2.64902 12.742 2.52379 12.3766 2.52379 12.0005C2.52379 11.6244 2.64902 11.259 2.87971 10.962C4.37271 9.013 7.95471 5 12.1367 5C14.0127 5 15.7667 5.807 17.2667 6.874" stroke="#7E89A4" stroke-width="2" stroke-linecap="round" stroke-linejoin="round" />
  <path d="M10.1367 18.704C10.7859 18.8972 11.4594 18.9969 12.1367 19C16.3187 19 19.9007 14.987 21.3937 13.038C21.6244 12.7407 21.7494 12.3751 21.7493 11.9988C21.7491 11.6226 21.6236 11.2571 21.3927 10.96C20.868 10.2755 20.3051 9.62112 19.7067 9M14.2667 9.887C13.989 9.60467 13.6582 9.38011 13.2932 9.22629C12.9283 9.07246 12.5365 8.99241 12.1405 8.99075C11.7445 8.98909 11.3521 9.06586 10.9859 9.21662C10.6197 9.36738 10.2869 9.58916 10.0069 9.86915C9.72681 10.1492 9.50496 10.4818 9.35411 10.848C9.20326 11.2142 9.1264 11.6066 9.12797 12.0026C9.12954 12.3986 9.2095 12.7904 9.36323 13.1554C9.51697 13.5203 9.74145 13.8512 10.0237 14.129L14.2667 9.887ZM4.13672 20L20.1367 4L4.13672 20Z" stroke="#7E89A4" stroke-width="2" stroke-linecap="round" stroke-linejoin="round" />
</svg>
  