<svg width="25" height="24" viewBox="0 0 25 24" fill="none" xmlns="http://www.w3.org/2000/svg">
  <path d="M21.3937 10.962C21.8677 11.582 21.8677 12.419 21.3937 13.038C19.9007 14.987 16.3187 19 12.1367 19C7.95473 19 4.37273 14.987 2.87973 13.038C2.64911 12.7411 2.52393 12.3759 2.52393 12C2.52393 11.6241 2.64911 11.2589 2.87973 10.962C4.37273 9.013 7.95473 5 12.1367 5C16.3187 5 19.9007 9.013 21.3937 10.962V10.962Z" stroke="#7E89A4" stroke-width="2" stroke-linecap="round" stroke-linejoin="round" />
  <path d="M12.1367 15C13.7936 15 15.1367 13.6569 15.1367 12C15.1367 10.3431 13.7936 9 12.1367 9C10.4799 9 9.13672 10.3431 9.13672 12C9.13672 13.6569 10.4799 15 12.1367 15Z" stroke="#7E89A4" stroke-width="2" stroke-linecap="round" stroke-linejoin="round" />
</svg>
  