<svg width="13" height="14" viewBox="0 0 13 14" fill="none" xmlns="http://www.w3.org/2000/svg">
<g clip-path="url(#clip0_788_26450)">
<path d="M12.8812 10.9437L8.9373 6.9998L12.8812 3.05593C12.9567 2.97943 12.9991 2.87624 12.9991 2.76871C12.9991 2.66118 12.9567 2.55799 12.8812 2.48149L11.0181 0.618428C10.9804 0.58062 10.9357 0.550621 10.8864 0.530152C10.8371 0.509682 10.7843 0.499146 10.7309 0.499146C10.6775 0.499146 10.6247 0.509682 10.5754 0.530152C10.5261 0.550621 10.4813 0.58062 10.4437 0.618428L6.4998 4.5623L2.55593 0.618428C2.47974 0.542267 2.37643 0.499483 2.26871 0.499483C2.16099 0.499483 2.05767 0.542267 1.98149 0.618428L0.118428 2.48149C0.0806198 2.51916 0.0506209 2.56392 0.0301516 2.61321C0.00968235 2.6625 -0.000854492 2.71534 -0.000854492 2.76871C-0.000854492 2.82208 0.00968235 2.87492 0.0301516 2.92421C0.0506209 2.9735 0.0806198 3.01826 0.118428 3.05593L4.0623 6.9998L0.118428 10.9437C0.0422674 11.0199 -0.000516964 11.1232 -0.000516964 11.2309C-0.000516964 11.3386 0.0422674 11.4419 0.118428 11.5181L1.98149 13.3812C2.01916 13.419 2.06392 13.449 2.11321 13.4695C2.1625 13.4899 2.21534 13.5005 2.26871 13.5005C2.32208 13.5005 2.37492 13.4899 2.42421 13.4695C2.4735 13.449 2.51826 13.419 2.55593 13.3812L6.4998 9.4373L10.4437 13.3812C10.5199 13.4573 10.6232 13.5001 10.7309 13.5001C10.8386 13.5001 10.9419 13.4573 11.0181 13.3812L12.8812 11.5181C12.919 11.4804 12.949 11.4357 12.9695 11.3864C12.9899 11.3371 13.0005 11.2843 13.0005 11.2309C13.0005 11.1775 12.9899 11.1247 12.9695 11.0754C12.949 11.0261 12.919 10.9813 12.8812 10.9437Z" fill="white"/>
</g>
<defs>
<clipPath id="clip0_788_26450">
<rect width="13" height="13" fill="white" transform="translate(0 0.5)"/>
</clipPath>
</defs>
</svg>
