<svg width="20" height="20" viewBox="0 0 20 20" fill="none" xmlns="http://www.w3.org/2000/svg">
<path d="M10.0001 1.59998C7.77228 1.59998 5.63571 2.48497 4.0604 4.06028C2.4851 5.63558 1.6001 7.77216 1.6001 9.99998C1.6001 12.2278 2.4851 14.3644 4.0604 15.9397C5.63571 17.515 7.77228 18.4 10.0001 18.4C12.2279 18.4 14.3645 17.515 15.9398 15.9397C17.5151 14.3644 18.4001 12.2278 18.4001 9.99998C18.4001 7.77216 17.5151 5.63558 15.9398 4.06028C14.3645 2.48497 12.2279 1.59998 10.0001 1.59998ZM14.7891 13.061L13.0601 14.79L10.0001 11.729L6.9391 14.789L5.2101 13.06L8.2721 9.99998L5.2111 6.93898L6.9401 5.21098L10.0001 8.27098L13.0611 5.20998L14.7901 6.93898L11.7281 9.99998L14.7891 13.061Z" fill="#DA0922"/>
<path d="M14.789 13.061L13.06 14.79L9.99996 11.729L6.93896 14.789L5.20996 13.06L8.27196 9.99996L5.21096 6.93896L6.93996 5.21096L9.99996 8.27096L13.061 5.20996L14.79 6.93896L11.728 9.99996L14.789 13.061Z" fill="white"/>
<path d="M14.789 13.061L13.06 14.79L9.99996 11.729L6.93896 14.789L5.20996 13.06L8.27196 9.99996L5.21096 6.93896L6.93996 5.21096L9.99996 8.27096L13.061 5.20996L14.79 6.93896L11.728 9.99996L14.789 13.061Z" fill="white"/>
</svg>
