<svg width="20" height="20" viewBox="0 0 20 20" fill="none" xmlns="http://www.w3.org/2000/svg">
<path d="M9.5733 18.1283C9.8183 18.2591 10.1258 18.2583 10.3708 18.1275C17.0475 14.5408 17.5216 7.5333 17.5158 5.5408C17.5152 5.38066 17.4678 5.22418 17.3796 5.09052C17.2914 4.95687 17.1661 4.85184 17.0191 4.7883L10.3108 1.81663C10.204 1.76957 10.0886 1.74534 9.97196 1.74548C9.85529 1.74563 9.73994 1.77015 9.6333 1.81747L2.97163 4.78913C2.82679 4.85271 2.70328 4.95657 2.61582 5.08836C2.52835 5.22015 2.48062 5.37431 2.4783 5.53247C2.44996 7.51497 2.84913 14.5375 9.5733 18.1283ZM7.2283 8.57747L9.13913 10.4883L12.7166 6.9108L13.895 8.08913L9.13913 12.845L6.04996 9.7558L7.2283 8.57747Z" fill="#01946F"/>
<path d="M7.22838 8.57743L9.13921 10.4883L12.7167 6.91077L13.895 8.0891L9.13921 12.8449L6.05005 9.75577L7.22838 8.57743Z" fill="white"/>
</svg>
