<svg width="20" height="20" viewBox="0 0 20 20" fill="none" xmlns="http://www.w3.org/2000/svg">
<g clip-path="url(#clip0_2402_21673)">
<path d="M9.99984 13.75C10.2209 13.75 10.4328 13.8378 10.5891 13.994C10.7454 14.1503 10.8332 14.3623 10.8332 14.5833V15C10.8332 15.221 10.7454 15.4329 10.5891 15.5892C10.4328 15.7455 10.2209 15.8333 9.99984 15.8333C9.77882 15.8333 9.56686 15.7455 9.41058 15.5892C9.2543 15.4329 9.1665 15.221 9.1665 15V14.5833C9.1665 14.3623 9.2543 14.1503 9.41058 13.994C9.56686 13.8378 9.77882 13.75 9.99984 13.75Z" fill="white"/>
<path d="M9.99984 6.66663C10.2209 6.66663 10.4328 6.75442 10.5891 6.9107C10.7454 7.06698 10.8332 7.27895 10.8332 7.49996V11.6666C10.8332 11.8876 10.7454 12.0996 10.5891 12.2559C10.4328 12.4122 10.2209 12.5 9.99984 12.5C9.77882 12.5 9.56686 12.4122 9.41058 12.2559C9.2543 12.0996 9.1665 11.8876 9.1665 11.6666V7.49996C9.1665 7.27895 9.2543 7.06698 9.41058 6.9107C9.56686 6.75442 9.77882 6.66663 9.99984 6.66663Z" fill="white"/>
<path fill-rule="evenodd" clip-rule="evenodd" d="M12.1191 2.165C11.9274 1.7657 11.6267 1.42869 11.2518 1.19281C10.8769 0.956936 10.4429 0.831787 9.99996 0.831787C9.557 0.831787 9.12305 0.956936 8.74812 1.19281C8.37319 1.42869 8.07253 1.7657 7.88079 2.165L1.11745 15.4692C0.308288 17.0575 1.33079 19.1667 3.23579 19.1667H16.7633C18.6691 19.1667 19.69 17.0583 18.8825 15.4692L12.1191 2.165ZM9.99996 6.66667C10.221 6.66667 10.4329 6.75447 10.5892 6.91075C10.7455 7.06703 10.8333 7.27899 10.8333 7.5V11.6667C10.8333 11.8877 10.7455 12.0996 10.5892 12.2559C10.4329 12.4122 10.221 12.5 9.99996 12.5C9.77894 12.5 9.56698 12.4122 9.4107 12.2559C9.25442 12.0996 9.16662 11.8877 9.16662 11.6667V7.5C9.16662 7.27899 9.25442 7.06703 9.4107 6.91075C9.56698 6.75447 9.77894 6.66667 9.99996 6.66667ZM9.99996 13.75C10.221 13.75 10.4329 13.8378 10.5892 13.9941C10.7455 14.1504 10.8333 14.3623 10.8333 14.5833V15C10.8333 15.221 10.7455 15.433 10.5892 15.5893C10.4329 15.7455 10.221 15.8333 9.99996 15.8333C9.77894 15.8333 9.56698 15.7455 9.4107 15.5893C9.25442 15.433 9.16662 15.221 9.16662 15V14.5833C9.16662 14.3623 9.25442 14.1504 9.4107 13.9941C9.56698 13.8378 9.77894 13.75 9.99996 13.75Z" fill="#FFB401"/>
</g>
<defs>
<clipPath id="clip0_2402_21673">
<rect width="20" height="20" fill="white"/>
</clipPath>
</defs>
</svg>
