<svg width="32" height="30" viewBox="0 0 32 30" fill="none" xmlns="http://www.w3.org/2000/svg">
  <path d="M15.6046 17.7888L20.9441 12.6667C21.0725 12.5435 21.1367 12.3938 21.1367 12.2178C21.1367 12.0418 21.0725 11.8922 20.9441 11.769L20.3386 11.1881C20.2101 11.0649 20.0542 11.0033 19.8707 11.0033C19.6872 10.9857 19.5312 11.0385 19.4028 11.1617L15.1367 15.2541L10.8707 11.1617C10.7422 11.0385 10.5863 10.9857 10.4028 11.0033C10.2193 11.0033 10.0633 11.0649 9.93488 11.1881L9.32938 11.769C9.20094 11.8922 9.13672 12.0418 9.13672 12.2178C9.13672 12.3938 9.20094 12.5435 9.32938 12.6667L14.6688 17.7888C14.7973 17.9296 14.9532 18 15.1367 18C15.3202 18 15.4762 17.9296 15.6046 17.7888Z" fill="#01040E" />
</svg>
  